# xmcd
# 
# Track frame offsets:
#     200
#     22077
#     57770
#     81275
#     104530
#     123082
#     139850
#     166215
#     187687
#     212680
#     231177
#     245027
#     265355
# 
# Disc length: 3697
# 
# Revision: 1
# Processed by: cddbd v1.5.2PL0 Copyright (c) Steve Scherf et al.
# Submitted via: BonkEnc v1.0beta4
# 
DISCID=b20e6f0d
DTITLE=Maxim Saury - Swingin ´ in L.A.!
DYEAR=1981
DGENRE=Jazz
TTITLE0=Swingin´ in L.A.
TTITLE1=St. Louis Blues
TTITLE2=Creole Love Call
TTITLE3=Sweet Georgia Brown
TTITLE4=Louisiana and me
TTITLE5=Strike up the Band
TTITLE6=Summertime
TTITLE7=Big Noise from Winnetka
TTITLE8=Mood Indigo
TTITLE9=When the Saints go marching in
TTITLE10=Blues for Lucille
TTITLE11=Together
TTITLE12=C Jam Blues
EXTD=YEAR: 1981
EXTT0=
EXTT1=
EXTT2=
EXTT3=
EXTT4=
EXTT5=
EXTT6=
EXTT7=
EXTT8=
EXTT9=
EXTT10=
EXTT11=
EXTT12=
PLAYORDER=
